/* XPM */
static char *_e0eb60c81784ac3b1b939907c1bd45a3S3gsIl3WN14xQaS[] = {
/* columns rows colors chars-per-pixel */
"64 64 79 1 ",
"  c #000000",
". c #0B0603",
"X c #0F0904",
"o c #0A0A0A",
"O c #140B06",
"+ c #190E07",
"@ c #1A0F08",
"# c #1E1008",
"$ c #131313",
"% c #1B1B1B",
"& c #24140A",
"* c #29170C",
"= c #2F1B0E",
"- c #311B0E",
"; c #271C15",
": c #361F10",
"> c #381F10",
", c #3A2111",
"< c #222222",
"1 c #2C2C2C",
"2 c #343434",
"3 c #3C3C3C",
"4 c #432614",
"5 c #472815",
"6 c #4B2A16",
"7 c #4F2D18",
"8 c #522E18",
"9 c #553019",
"0 c #5A331B",
"q c #62371D",
"w c #673A1F",
"e c #454545",
"r c #4E4E4E",
"t c #535353",
"y c #5B5B5B",
"u c #656565",
"i c #6C6C6C",
"p c #757575",
"a c #7B7B7B",
"s c #897E77",
"d c #837C78",
"f c #8A7F78",
"g c #848484",
"h c #8A8A8A",
"j c gray56",
"k c #909090",
"l c gray58",
"z c #959595",
"x c gray60",
"c c #9B9B9B",
"v c #A0A0A0",
"b c gray64",
"n c #A4A4A4",
"m c gray65",
"M c #A7A7A7",
"N c #A9A9A9",
"B c #AEAEAE",
"V c gray70",
"C c gray71",
"Z c gray73",
"A c gray75",
"S c #C1C1C1",
"D c #C3C3C3",
"F c #C5C5C5",
"G c #CECECE",
"H c #D0D0D0",
"J c #D8D8D8",
"K c gray85",
"L c #DFDFDF",
"P c #E2E2E2",
"I c gray89",
"U c gray90",
"Y c gray91",
"T c #EFEFEF",
"R c gray94",
"E c gray97",
"W c #F9F9F9",
"Q c #FBFBFB",
"! c white",
/* pixels */
"!!!!!!!!!!!!!!!!!!!!!!!!!!!WRYPLLPYR!!!!!!!!!!!!!!!!!!!!!!!!!!!!",
"!!!!!!!!!!!!!!!!!!!!!!!TJSVNmmmmmmmmmVSJT!!!!!!!!!!!!!!!!!!!!!!!",
"!!!!!!!!!!!!!!!!!!!!TGVmmmmvzgaffpgzvmmmmVHR!!!!!!!!!!!!!!!!!!!!",
"!!!!!!!!!!!!!!!!!!PAmmmzie<o   66   o<eizmmmAP!!!!!!!!!!!!!!!!!!",
"!!!!!!!!!!!!!!!!UZmmcu1      +5664+      1icmmZU!!!!!!!!!!!!!!!!",
"!!!!!!!!!!!!!!EFmmzro       +--88,-+       orzmmFE!!!!!!!!!!!!!!",
"!!!!!!!!!!!!!UBmcy $ie     +=O,66:.=+     ei$ ycmBU!!!!!!!!!!!!!",
"!!!!!!!!!!!!Hmma%  t<i    +--,q66q4&-+    i<t  %ammH!!!!!!!!!!!!",
"!!!!!!!!!!WSmmr    iit   +-=+6>90:5O=-+   rii    tvNS!!!!!!!!!!!",
"!!!!!!!!!WZmc1    u1    +-=+,&-#@>&,+=-+    1u    1cmZW!!!!!!!!!",
"!!!!!!!!WZmz%    u1    +-=+  &    *  +=-+    1u    %zmZW!!!!!!!!",
"!!!!!!!!Smz%    u1    +-=+            +=-+    1u    $zmS!!!!!!!!",
"!!!!!!!GNc%    i1    +-=+              +=-+    1u    %cmG!!!!!!!",
"!!!!!!Pmm1    u1    +-=+                +=-+    1u    1mmP!!!!!!",
"!!!!!EBmr    u1    +-=+                  +=-+    1u    tmBE!!!!!",
"!!!!!Fma    u1    +-=+                    +=-+    1i    amS!!!!!",
"!!!!Ymc%   i1    +-=+                      +=-+    1u   %vmU!!!!",
"!!!!Zmy   u1    +-=+                        +=-+    1u   ymZ!!!!",
"!!!Umz   u1    +==+                          +=-+    1u  ocmU!!!",
"!!!Zmt$ti1    +-=+                            +=-+    1ir$rmA!!!",
"!!Tmcoi<i    +-=+                              +=-+    i<uocmT!!",
"!!Gmi eir   +-=+                                +=-+   rie imG!!",
"!!Vm1      +-=+                                  +=-+      1mV!!",
"!Tmc      +-=+                                    +=-+      cmT!",
"!Jmi     +==#                                      #=-+     imJ!",
"!Fme    +-=+ %riiro        2e3       %ruuy$     1ee +=-+    emF!",
"!Vm<   +-=+  vueeyC3       AuA       Nue3ymu    miZ% +==#   <mV!",
"WNco  +==+   voep3oC      1g a3      N eae c1   m z%  +==@  ovNW",
"RNz  +=&+,   voV2v2h%     ieu3p      m V2lu2a   mol%  ,+-=+  zmR",
"Ymg +-.45#*  voN eug1     v%E$N      m B om$z   m j% &&6,O-+ gmY",
"Ump 4,:w-,   voNoz3B      V3P2B      m B ov<h   mol%  -,q,-5 amU",
"Pmf668950#   vogvuhi     <hpgia2     N V3ceir   v j%  &966856smP",
"Pms668668&   vo%$1Bu     urc<c3p     N yp22V    moj%  #057866smP",
"Pmp 5-,q>-   voVzC1c<    moZ3ZoN     m 2e N2    m z%  ,-q:>5 amP",
"Ymg +=O,6&&  voB %c3p    V iii B     N Cpz<z    moj% *#54.=+ gmY",
"Rmz  +--@4   voN ov<g   <h%trt%g1    N B B V    m j%  ,+&-+  zmR",
"!mvo  +--+   voN yi3p   urapypaei    N B a2g1   v z%  +=-@  ovmW",
"!Vm<   +-=+  voaNg l1   c$N  om N    m N 3a3p   moj% +=-+   <mV!",
"!Fme    +==+ v1oo%gg    A1V   V1A    m2Z  C2V   m2v%+=-+    emF!",
"!Jmi     +--+ejcmze    oggt   tggo   yga  uga   ygg;=-+     imJ!",
"!Rmz      +--+                                    +=-@      cmT!",
"!!Vm1      +-=#                                  +==+      1mV!!",
"!!Gmu ept   +-=@                                +=-+  rie  imH!!",
"!!Rmvou<i    +-=@                              +=-+   i<i ovmT!!",
"!!!Amr$ri1    +-=&                            +=-+   1ir$ rmA!!!",
"!!!Umco  u1    O-*#                          +=-+   1i   ocmU!!!",
"!!!!Zmy   u1    O:*&                        +=-+   1u    ymZ!!!!",
"!!!!Ymv$   u1    O>*&                      +=-+   1u    %cmU!!!!",
"!!!!!Fma    i1    O:*#                    +=-+   1u     gmF!!!!!",
"!!!!!EBmt    u1    O:*&                  +==+   1u     tmBE!!!!!",
"!!!!!!Umv1    u1    O,*&                +=-+   1i     1vmP!!!!!!",
"!!!!!!!Hmc%    u1    X,&&              +--+   1i     %cmG!!!!!!!",
"!!!!!!!WSmz%    u1    X,&&            +=,@   1u     %zmS!!!!!!!!",
"!!!!!!!!!Zmz%    u1    O,&&  -    *  +=:@   1u     %zmAW!!!!!!!!",
"!!!!!!!!!WZmc1    u1    X,&&,+,#*:#4@=:@   1i     1cmZW!!!!!!!!!",
"!!!!!!!!!!WSmvy    iir   X,&+5-q6,5+=:@  rii     tvNSW!!!!!!!!!!",
"!!!!!!!!!!!!Gmva%  r<i    X:#405604-:@   i%t   $ammG!!!!!!!!!!!!",
"!!!!!!!!!!!!!PBmcyo$ue     O,.-664.:@    ei$ oycmBP!!!!!!!!!!!!!",
"!!!!!!!!!!!!!!WFmmcro       O-*06>:@       orcmmFW!!!!!!!!!!!!!!",
"!!!!!!!!!!!!!!!!UZmmvu1      O4464@      1icmmZT!!!!!!!!!!!!!!!!",
"!!!!!!!!!!!!!!!!!!UAmmmzie%o   55    <eizmmmAU!!!!!!!!!!!!!!!!!!",
"!!!!!!!!!!!!!!!!!!!!RGVmmmmvzgadfagzmmmmmVGR!!!!!!!!!!!!!!!!!!!!",
"!!!!!!!!!!!!!!!!!!!!!!!RJSVmmmmmmmmmmVSJT!!!!!!!!!!!!!!!!!!!!!!!",
"!!!!!!!!!!!!!!!!!!!!!!!!!!!WRYPLLPYRW!!!!!!!!!!!!!!!!!!!!!!!!!!!"
};
