/* XPM */
static char *e199f66b811047f8c559afc016bd9ffcUA1puS3kEVcqfWNX[] = {
/* columns rows colors chars-per-pixel */
"16 16 49 1 ",
"  c #010000",
". c #060301",
"X c gray2",
"o c #080604",
"O c gray4",
"+ c #110F0D",
"@ c #120F0D",
"# c #1C1008",
"$ c #1D1008",
"% c #111111",
"& c #151515",
"* c #1A1816",
"= c #1B1817",
"- c #191919",
"; c gray12",
": c #321C0F",
"> c #351E0F",
", c #351E10",
"< c #361E10",
"1 c #222222",
"2 c #272727",
"3 c #282828",
"4 c #2D2D2D",
"5 c #353535",
"6 c #414040",
"7 c #4B4A4A",
"8 c #535353",
"9 c #5A5A5A",
"0 c #606060",
"q c #656565",
"w c #676767",
"e c DimGray",
"r c #717070",
"t c #777777",
"y c gray48",
"u c #7E7E7E",
"i c gray51",
"p c #848484",
"a c #898785",
"s c gray55",
"d c #8D8D8D",
"f c #A0A0A0",
"g c #A5A5A5",
"h c gray65",
"j c #AEAEAE",
"k c #C1C1C1",
"l c #D8D8D8",
"z c #F9F9F9",
"x c white",
/* pixels */
"xxxxzlhaahlzxxxx",
"xxxle2.>>.2elxxx",
"xxk21+####+12kxx",
"xl31X#    #o12lx",
"ze1o#      #o1ez",
"l3+#        #+3l",
"h.#70 &5 7w 6#.h",
"a,#ui 9y ytOp#,a",
"a,#isXsj pf p#>a",
"ho#rs 08%09Oe#.h",
"l3@#        #*;l",
"ze1o#      #+;wz",
"xl31o$    #+-2lx",
"xxk31+####=-2kxx",
"xxxle2.:,o40lxxx",
"xxxxzlhaahlzxxxx"
};
