/* XPM */
static char *ae67271b11a2467de99559ddb0a7551aYgM4iyFlLgSDV6cC[] = {
/* columns rows colors chars-per-pixel */
"32 32 90 1 ",
"  c black",
". c #060301",
"X c #070707",
"o c #0A0503",
"O c #0C0603",
"+ c #0B0B0B",
"@ c #0E0E0E",
"# c #160C06",
"$ c #170D07",
"% c #180D07",
"& c #1B0F08",
"* c #131313",
"= c gray8",
"- c #191919",
"; c #1B1B1B",
": c #1E1B19",
"> c #1E1E1E",
", c #28160C",
"< c #2A180C",
"1 c #2D1A0D",
"2 c #301B0E",
"3 c #331D0F",
"4 c #381F10",
"5 c #392011",
"6 c #3C2212",
"7 c #272727",
"8 c #2A2A2A",
"9 c gray18",
"0 c #2F2F2F",
"q c gray23",
"w c #3F3D3B",
"e c #3E3E3E",
"r c #3F3F3F",
"t c #442714",
"y c #472815",
"u c #4B2A16",
"i c #4C2B17",
"p c #4D2B17",
"a c #4E2C17",
"s c #434343",
"d c #444444",
"f c #464646",
"g c gray31",
"h c #514741",
"j c #534842",
"k c #544942",
"l c gray32",
"z c #565656",
"x c #5B5B5B",
"c c gray36",
"v c #5D5D5D",
"b c #626262",
"n c DimGray",
"m c gray45",
"M c gray46",
"N c gray48",
"B c #7E7E7E",
"V c gray50",
"C c #848484",
"Z c gray53",
"A c #898989",
"S c gray55",
"D c gray58",
"F c gray61",
"G c #9D9D9D",
"H c #A2A2A2",
"J c #A5A5A5",
"K c #A7A7A7",
"L c #AFAFAF",
"P c gray69",
"I c #BBBBBB",
"U c #BCBCBC",
"Y c #C3C3C3",
"T c gray77",
"R c gray78",
"E c gray79",
"W c #D5D5D5",
"Q c #D7D7D7",
"! c gray86",
"~ c #DFDFDF",
"^ c #E2E2E2",
"/ c gray89",
"( c gray90",
") c gray91",
"_ c #EEEEEE",
"` c gray95",
"' c #F4F4F4",
"] c gray96",
"[ c #FBFBFB",
"{ c white",
/* pixels */
"{{{{{{{{{{{[(QETYEQ([{{{{{{{{{{{",
"{{{{{{{{{)YJBxdkjdcBJY){{{{{{{{{",
"{{{{{{{_IAs@  %ty$  +dSI_{{{{{{{",
"{{{{{{QGs-g  %1uu,&  l-sGQ{{{{{{",
"{{{{{TZ= e9 $<2451<% 9r *CY{{{{{",
"{{{{TNX e+ &<.o  o.<& +e +NY{{{{",
"{{{QZX e+ %<.      .,% +e XZQ{{{",
"{{_G* e+ %<.        .<% +e *G_{{",
"{{Is e+ %<.          .,& +e sU{{",
"{(S-e+ %<.            .<% +s-S){",
"{Ydg9 $<.              .<% 9gdY{",
"[J+  %<.                .<%  +J[",
"(Z  %<.XX          XX    .<%  B(",
"Wx &<.7[`Z   zQ   7['H  Hc.<% cQ",
"Td&,1o8E@^   D^>  7E+/- Jbo2<&dE",
"Tjta5 8!MH   QAc  8E@/@ Kb 4iykT",
"Tkti5 8)LG  *EgG  8['A  Kb 5uyjT",
"Ed$13o8E != z[`!  8ElP  Kbo<,&dE",
"Qc %<.8!b)X DbX~> 8E+)X Kb.<& c!",
"(B  $<:HJd  m> n8 -M M> bw<&  V/",
"{H+  %<o                .,&  +J[",
"{Ydg9 %<o              .<& l9sY{",
"{)S-e@ %<o            .,% 90XS){",
"{{Id e+ $,o          .<& 0- sI{{",
"{{_G* e+ $<o        .<& 0; =G_{{",
"{{{QCX e+ $<o      .<% 9; XZQ{{{",
"{{{{TNX e@ $<.o  O.<& 9> XNT{{{{",
"{{{{{TZ= e9 $<1651<&*s- =ZT{{{{{",
"{{{{{{QGd-l  $,ua1& 9q dGQ{{{{{{",
"{{{{{{{_USs+  $tt&  +sSU_{{{{{{{",
"{{{{{{{{{(YJBxdhkdxBJY({{{{{{{{{",
"{{{{{{{{{{{[(QETTT!([{{{{{{{{{{{"
};
